<svg id="svg" xmlns="http://www.w3.org/2000/svg" xmlns:xlink="http://www.w3.org/1999/xlink" width="400" height="400" viewBox="0, 0, 400,400"><g id="svgg"><path id="path0" d="M200.000 140.000 L 200.000 200.000 260.000 200.000 L 320.000 200.000 320.000 140.000 L 320.000 80.000 260.000 80.000 L 200.000 80.000 200.000 140.000 " stroke="none" fill="#fc04fc" fill-rule="evenodd"></path><path id="path1" d="M80.000 140.000 L 80.000 200.000 140.000 200.000 L 200.000 200.000 200.000 140.000 L 200.000 80.000 140.000 80.000 L 80.000 80.000 80.000 140.000 " stroke="none" fill="#04fcfc" fill-rule="evenodd"></path><path id="path2" d="M200.000 260.000 L 200.000 320.000 260.000 320.000 L 320.000 320.000 320.000 260.000 L 320.000 200.000 260.000 200.000 L 200.000 200.000 200.000 260.000 " stroke="none" fill="#040404" fill-rule="evenodd"></path><path id="path3" d="M80.000 260.000 L 80.000 320.000 140.000 320.000 L 200.000 320.000 200.000 260.000 L 200.000 200.000 140.000 200.000 L 80.000 200.000 80.000 260.000 " stroke="none" fill="#fcfc04" fill-rule="evenodd"></path><path id="path4" d="" stroke="none" fill="#bcbc84" fill-rule="evenodd"></path></g></svg>