<?xml version="1.0" standalone="no"?>
<!DOCTYPE svg PUBLIC "-//W3C//DTD SVG 20010904//EN"
 "http://www.w3.org/TR/2001/REC-SVG-20010904/DTD/svg10.dtd">
<svg version="1.0" xmlns="http://www.w3.org/2000/svg"
 width="2716.000000pt" height="2716.000000pt" viewBox="0 0 2716.000000 2716.000000"
 preserveAspectRatio="xMidYMid meet">
<metadata>
Created by potrace 1.11, written by Peter Selinger 2001-2013
</metadata>
<g transform="translate(0.000000,2716.000000) scale(0.100000,-0.100000)"
fill="#000000" stroke="none">
<path d="M3660 13320 l0 -12000 1500 0 1500 0 0 4500 0 4500 500 0 500 0 0
-500 0 -500 500 0 500 0 0 500 0 500 500 0 500 0 0 500 0 500 500 0 500 0 0
500 0 500 500 0 500 0 0 500 0 500 500 0 500 0 0 1000 0 1000 500 0 500 0 0
3000 0 3000 -500 0 -500 0 0 500 0 500 -500 0 -500 0 0 500 0 500 -500 0 -500
0 0 500 0 500 -1000 0 -1000 0 0 500 0 500 -2500 0 -2500 0 0 -12000z m5000
8500 l0 -500 1000 0 1000 0 0 -2500 0 -2500 -500 0 -500 0 0 -500 0 -500 -500
0 -500 0 0 -500 0 -500 -1000 0 -1000 0 0 4000 0 4000 1000 0 1000 0 0 -500z
m4000 -5000 l0 -500 -500 0 -500 0 0 500 0 500 500 0 500 0 0 -500z m-7000
-8000 l0 -500 -500 0 -500 0 0 500 0 500 500 0 500 0 0 -500z"/>
</g>
</svg>
